# Blender 3.4.1
# www.blender.org
mtllib gravestone.mtl
o Plane
v 0.000000 1.000000 -1.000000
v 0.000000 -1.000000 -1.000000
v 0.286694 1.000000 -1.000000
v 0.286694 -1.000000 -1.000000
v -0.000000 0.870523 1.215519
v -0.000000 -0.870523 1.215519
v -0.000000 0.723625 1.424354
v -0.000000 0.558910 1.592368
v -0.000000 0.380432 1.715423
v -0.000000 0.192587 1.790489
v -0.000000 0.000000 1.815718
v -0.000000 -0.192587 1.790489
v -0.000000 -0.380432 1.715423
v -0.000000 -0.558910 1.592368
v -0.000000 -0.723625 1.424354
v 0.286694 -0.870523 1.215519
v 0.286694 0.870523 1.215519
v 0.286694 -0.723625 1.424354
v 0.286694 -0.558910 1.592368
v 0.286694 -0.380432 1.715423
v 0.286694 -0.192587 1.790489
v 0.286694 0.000000 1.815718
v 0.286694 0.192587 1.790489
v 0.286694 0.380432 1.715423
v 0.286694 0.558910 1.592368
v 0.286694 0.723625 1.424354
v -0.000000 1.000000 0.623985
v -0.000000 0.870523 1.215519
v -0.000000 0.982653 0.840866
v -0.000000 0.935261 1.057383
v -0.000000 -0.870523 1.215519
v -0.000000 -1.000000 0.623985
v -0.000000 -0.935261 1.057383
v -0.000000 -0.982653 0.840866
v 0.286694 0.870523 1.215519
v 0.286694 1.000000 0.623985
v 0.286694 0.935261 1.057383
v 0.286694 0.982653 0.840866
v 0.286694 -1.000000 0.623985
v 0.286694 -0.870523 1.215519
v 0.286694 -0.982653 0.840866
v 0.286694 -0.935261 1.057383
vn -1.0000 -0.0000 -0.0000
vn -0.0000 -1.0000 -0.0000
vn -0.0000 -0.0000 1.0000
vn -0.0000 -0.8179 -0.5753
vn -0.0000 -0.7141 -0.7001
vn -0.0000 -0.5676 -0.8233
vn -0.0000 -0.3711 -0.9286
vn -0.0000 -0.1299 -0.9915
vn -0.0000 0.1299 -0.9915
vn -0.0000 0.3711 -0.9286
vn -0.0000 0.5676 -0.8233
vn -0.0000 0.7141 -0.7001
vn -0.0000 0.8179 -0.5753
vn -0.0000 1.0000 -0.0000
vn -0.0000 0.9968 -0.0797
vn -0.0000 0.9769 -0.2138
vn -0.0000 0.9255 -0.3789
vn -0.0000 -0.9255 -0.3789
vn -0.0000 -0.9769 -0.2138
vn -0.0000 -0.9968 -0.0797
vn 1.0000 -0.0000 -0.0000
vt 0.000000 0.000000
vt 1.000000 0.000000
vt 0.000000 0.000000
vt 1.000000 0.000000
vt 0.064739 1.000000
vt 0.935261 1.000000
vt 0.132937 0.998475
vt 0.199674 0.994708
vt 0.263305 0.990017
vt 0.322264 0.986017
vt 0.500000 0.984412
vt 0.677736 0.986017
vt 0.736695 0.990017
vt 0.800326 0.994708
vt 0.867063 0.998475
vt 0.935261 1.000000
vt 0.064739 1.000000
vt 0.867063 0.998475
vt 0.800326 0.994708
vt 0.736695 0.990017
vt 0.677736 0.986017
vt 0.500000 0.984412
vt 0.322264 0.986017
vt 0.263305 0.990017
vt 0.199674 0.994708
vt 0.132937 0.998475
vt 0.000000 0.811992
vt 0.064739 1.000000
vt 0.002884 0.919497
vt 0.024940 0.997116
vt 0.935261 1.000000
vt 1.000000 0.811992
vt 0.975060 0.997116
vt 0.997116 0.919497
vt 0.064739 1.000000
vt 0.000000 0.811992
vt 0.024940 0.997116
vt 0.002884 0.919497
vt 1.000000 0.811992
vt 0.935261 1.000000
vt 0.997116 0.919497
vt 0.975060 0.997116
s 0
usemtl Material.001
f 42/42/1 23/23/1 38/38/1
f 31/31/1 16/16/1 40/40/1
f 5/5/1 35/35/1 17/17/1
f 1/1/2 36/36/2 27/27/2
f 2/2/3 3/3/3 1/1/3
f 5/5/4 26/26/4 7/7/4
f 26/26/5 8/8/5 7/7/5
f 25/25/6 9/9/6 8/8/6
f 24/24/7 10/10/7 9/9/7
f 23/23/8 11/11/8 10/10/8
f 22/22/9 12/12/9 11/11/9
f 21/21/10 13/13/10 12/12/10
f 20/20/11 14/14/11 13/13/11
f 19/19/12 15/15/12 14/14/12
f 18/18/13 6/6/13 15/15/13
f 32/32/14 4/4/14 2/2/14
f 32/32/15 41/41/15 39/39/15
f 34/34/16 42/42/16 41/41/16
f 33/33/17 40/40/17 42/42/17
f 28/28/18 37/37/18 35/35/18
f 30/30/19 38/38/19 37/37/19
f 29/29/20 36/36/20 38/38/20
f 28/28/21 10/10/21 14/14/21
f 36/36/1 3/3/1 4/4/1
f 4/4/1 39/39/1 41/41/1
f 42/42/1 40/40/1 16/16/1
f 16/16/1 18/18/1 19/19/1
f 19/19/1 20/20/1 21/21/1
f 21/21/1 22/22/1 23/23/1
f 23/23/1 24/24/1 25/25/1
f 26/26/1 17/17/1 35/35/1
f 35/35/1 37/37/1 38/38/1
f 38/38/1 36/36/1 4/4/1
f 4/4/1 41/41/1 42/42/1
f 42/42/1 16/16/1 19/19/1
f 19/19/1 21/21/1 23/23/1
f 23/23/1 25/25/1 26/26/1
f 26/26/1 35/35/1 38/38/1
f 38/38/1 4/4/1 42/42/1
f 42/42/1 19/19/1 23/23/1
f 23/23/1 26/26/1 38/38/1
f 31/31/1 6/6/1 16/16/1
f 5/5/1 28/28/1 35/35/1
f 1/1/2 3/3/2 36/36/2
f 2/2/3 4/4/3 3/3/3
f 5/5/4 17/17/4 26/26/4
f 26/26/5 25/25/5 8/8/5
f 25/25/6 24/24/6 9/9/6
f 24/24/7 23/23/7 10/10/7
f 23/23/8 22/22/8 11/11/8
f 22/22/9 21/21/9 12/12/9
f 21/21/10 20/20/10 13/13/10
f 20/20/11 19/19/11 14/14/11
f 19/19/12 18/18/12 15/15/12
f 18/18/13 16/16/13 6/6/13
f 32/32/14 39/39/14 4/4/14
f 32/32/15 34/34/15 41/41/15
f 34/34/16 33/33/16 42/42/16
f 33/33/17 31/31/17 40/40/17
f 28/28/18 30/30/18 37/37/18
f 30/30/19 29/29/19 38/38/19
f 29/29/20 27/27/20 36/36/20
f 2/2/21 1/1/21 27/27/21
f 27/27/21 29/29/21 30/30/21
f 28/28/1 5/5/1 7/7/1
f 27/27/21 30/30/21 28/28/21
f 32/32/21 2/2/21 27/27/21
f 33/33/21 34/34/21 32/32/21
f 15/15/1 6/6/1 31/31/1
f 31/31/21 33/33/21 32/32/21
f 32/32/21 27/27/21 28/28/21
f 28/28/21 7/7/21 8/8/21
f 8/8/21 9/9/21 10/10/21
f 10/10/21 11/11/21 12/12/21
f 12/12/21 13/13/21 14/14/21
f 14/14/21 15/15/21 31/31/21
f 31/31/21 32/32/21 28/28/21
f 28/28/21 8/8/21 10/10/21
f 10/10/21 12/12/21 14/14/21
f 14/14/21 31/31/21 28/28/21
